<?xml version="1.0" encoding="UTF-8"?>
<svg id="Layer_1" data-name="Layer 1" xmlns="http://www.w3.org/2000/svg" viewBox="0 0 1440 70">
  <defs>
    <style>
      .cls-1 {
        fill: #00f380;
      }

      .cls-2 {
        fill: #fff;
      }
    </style>
  </defs>
  <g id="B-logo-graphic_lg_horiz_white-green" data-name="B-logo-graphic lg horiz white-green">
    <g id="Group_170" data-name="Group 170">
      <path id="Path_286" data-name="Path 286" class="cls-1" d="m1424.15,13.42c3.18,1.8,5.19,5.14,5.29,8.79,0,1.07-.19,2.14-.55,3.15,1,.47,1.97,1,2.91,1.58.61-1.5.92-3.11.92-4.73-.09-4.78-2.68-9.17-6.82-11.57-3.36-2.02-7.21-3.07-11.13-3.03h-3.39v3.28h3.39c3.3-.04,6.55.83,9.39,2.53"/>
      <path id="Path_287" data-name="Path 287" class="cls-1" d="m1428.02,7.25c5.53,3.47,8.7,8.92,8.7,14.96,0,2.47-.54,4.91-1.6,7.14.88.74,1.7,1.53,2.48,2.38,1.58-2.92,2.41-6.2,2.4-9.52,0-7.19-3.73-13.65-10.23-17.73-4.52-2.75-9.72-4.18-15.01-4.14h-3.39v3.28h3.39c4.67-.04,9.27,1.22,13.26,3.64"/>
      <path id="Path_288" data-name="Path 288" class="cls-1" d="m1422.16,22.21c0,.28-.06.56-.17.82,1.08.23,2.14.52,3.17.86.18-.54.27-1.1.27-1.67,0-4.1-4.69-7.31-10.67-7.31h-3.39v3.28h3.39c3.94,0,7.4,1.89,7.4,4.04"/>
      <path id="Path_289" data-name="Path 289" class="cls-2" d="m1429.76,30.39c-4.52-2.75-9.72-4.18-15.01-4.14h-3.39v3.28h3.39c4.67-.04,9.26,1.22,13.26,3.64,5.53,3.47,8.7,8.92,8.7,14.96s-3.17,11.49-8.7,14.96c-4,2.42-8.59,3.68-13.26,3.64h-21.96V14.45h-3.22L0,11.5v3.2l1389.52,2.95v52.35h25.24c5.29.04,10.48-1.4,15.01-4.14,6.5-4.08,10.23-10.55,10.23-17.73s-3.73-13.65-10.23-17.73"/>
      <path id="Path_290" data-name="Path 290" class="cls-2" d="m1425.89,36.56c-3.36-2.02-7.21-3.07-11.13-3.03h-3.39v3.28h3.39c3.3-.04,6.55.83,9.39,2.53,4.86,2.57,6.7,8.6,4.13,13.45-.93,1.76-2.37,3.2-4.13,4.13-2.84,1.69-6.09,2.57-9.39,2.53h-14.68V7.5L0,5.95v3.2l1389.59,1.55h7.19v28.82h.03v23.2h17.96c3.92.04,7.77-1.01,11.13-3.03,6.39-3.53,8.7-11.57,5.17-17.96-1.2-2.18-3-3.97-5.17-5.18"/>
      <path id="Path_291" data-name="Path 291" class="cls-2" d="m1414.76,40.81h-3.39v3.28h3.39c4.36,0,7.4,2.13,7.4,4.04s-3.04,4.04-7.4,4.04h-7.3V0h-17.88L0,.23v3.35l1389.58-.23h14.5v52.08h10.67c5.98,0,10.67-3.21,10.67-7.31s-4.69-7.31-10.67-7.31"/>
    </g>
  </g>
</svg>