<svg width="74" height="70" viewBox="0 0 74 70" fill="none" xmlns="http://www.w3.org/2000/svg">
<g clip-path="url(#clip0_694_1600)">
<path d="M529.011 30.39C527.339 27.64 525.415 26.21 523.458 26.25H522.203V29.53H523.458C525.185 29.49 526.884 30.75 528.364 33.17C530.41 36.64 531.583 42.09 531.583 48.13C531.583 54.17 530.41 59.62 528.364 63.09C526.884 65.51 525.185 66.77 523.458 66.73H515.332V14.45H514.141L0 11.5V14.7L514.122 17.65V70H523.461C525.419 70.04 527.339 68.6 529.015 65.86C531.42 61.78 532.8 55.31 532.8 48.13C532.8 40.95 531.42 34.48 529.015 30.4" fill="white"/>
<path d="M527.579 36.56C526.336 34.54 524.912 33.4899 523.461 33.5299H522.207V36.81H523.461C524.682 36.77 525.885 37.64 526.936 39.34C528.734 41.91 529.415 47.94 528.464 52.79C528.12 54.55 527.587 55.9899 526.936 56.9199C525.885 58.6099 524.682 59.49 523.461 59.45H518.03V7.49995L0 5.94995V9.14995L514.148 10.7H516.809V39.52H516.82V62.72H523.465C524.915 62.76 526.34 61.7099 527.583 59.6899C529.947 56.1599 530.802 48.1199 529.496 41.7299C529.052 39.5499 528.386 37.7599 527.583 36.5499" fill="white"/>
<path d="M523.461 40.81H522.207V44.09H523.461C525.074 44.09 526.199 46.22 526.199 48.13C526.199 50.04 525.074 52.17 523.461 52.17H520.76V0H514.145L0 0.23V3.58L514.145 3.35H519.51V55.43H523.457C525.67 55.43 527.405 52.22 527.405 48.12C527.405 44.02 525.67 40.81 523.457 40.81" fill="white"/>
</g>
<defs>
<clipPath id="clip0_694_1600">
<rect width="74" height="70" fill="white"/>
</clipPath>
</defs>
</svg>
