<svg width="55" height="70" viewBox="0 0 55 70" fill="none" xmlns="http://www.w3.org/2000/svg">
<g clip-path="url(#clip0_694_1625)">
<path d="M39.15 13.42C42.33 15.22 44.3399 18.56 44.4399 22.21C44.4399 23.28 44.25 24.35 43.89 25.36C44.89 25.83 45.86 26.36 46.8 26.94C47.41 25.44 47.72 23.83 47.72 22.21C47.63 17.43 45.04 13.04 40.9 10.64C37.54 8.61999 33.69 7.56999 29.77 7.60999H26.38V10.89H29.77C33.07 10.85 36.32 11.72 39.16 13.42" fill="#00F380"/>
<path d="M43.02 7.24993C48.55 10.7199 51.72 16.1699 51.72 22.2099C51.72 24.6799 51.18 27.1199 50.12 29.3499C51 30.0899 51.82 30.8799 52.6 31.7299C54.18 28.8099 55.01 25.5299 55 22.2099C55 15.0199 51.27 8.55993 44.77 4.47993C40.25 1.72993 35.05 0.299928 29.76 0.339928H26.37V3.61993H29.76C34.43 3.57993 39.03 4.83993 43.02 7.25993" fill="#00F380"/>
<path d="M37.16 22.2099C37.16 22.4899 37.1 22.7699 36.99 23.0299C38.07 23.2599 39.13 23.5499 40.16 23.8899C40.34 23.3499 40.4301 22.7899 40.4301 22.2199C40.4301 18.1199 35.74 14.9099 29.76 14.9099H26.37V18.1899H29.76C33.7 18.1899 37.16 20.0799 37.16 22.2299" fill="#00F380"/>
<path d="M44.76 30.3899C40.24 27.6399 35.04 26.2099 29.75 26.2499H26.36V29.5299H29.75C34.42 29.4899 39.01 30.7499 43.01 33.1699C48.54 36.6399 51.71 42.0899 51.71 48.1299C51.71 54.1699 48.54 59.6199 43.01 63.0899C39.01 65.5099 34.42 66.7699 29.75 66.7299H7.79004V14.4499H4.56995L0 14.4402V17.6403L4.52002 17.6499V69.9999H29.76C35.05 70.0399 40.24 68.5999 44.77 65.8599C51.27 61.7799 55 55.3099 55 48.1299C55 40.9499 51.27 34.4799 44.77 30.3999" fill="white"/>
<path d="M40.89 36.56C37.53 34.54 33.68 33.49 29.76 33.53H26.37V36.81H29.76C33.06 36.77 36.31 37.64 39.15 39.34C44.01 41.91 45.85 47.94 43.28 52.79C42.35 54.55 40.91 55.99 39.15 56.92C36.31 58.61 33.06 59.49 29.76 59.45H15.08V7.5H0V10.6949L11.78 10.7L11.8101 62.72H29.77C33.69 62.76 37.54 61.71 40.9 59.69C47.29 56.16 49.5999 48.12 46.0699 41.73C44.8699 39.55 43.07 37.76 40.9 36.55" fill="white"/>
<path d="M29.76 40.81H26.37V44.09H29.76C34.12 44.09 37.16 46.22 37.16 48.13C37.16 50.04 34.12 52.17 29.76 52.17H22.46V0H4.57996L0 0.00405806V3.35406L4.57996 3.35H19.08V55.43H29.75C35.73 55.43 40.42 52.22 40.42 48.12C40.42 44.02 35.73 40.81 29.75 40.81" fill="white"/>
</g>
<defs>
<clipPath id="clip0_694_1625">
<rect width="55" height="70" fill="white"/>
</clipPath>
</defs>
</svg>
